<svg width="70" height="73" viewBox="0 0 70 73" fill="none" xmlns="http://www.w3.org/2000/svg">
<path d="M70 36.2602C70 29.0886 67.9473 22.078 64.1014 16.1151C60.2556 10.1522 54.7894 5.5046 48.3939 2.76015C41.9985 0.015711 34.9612 -0.70236 28.1718 0.696745C21.3825 2.09585 15.1461 5.54929 10.2512 10.6204C5.35644 15.6915 2.02301 22.1524 0.672531 29.1862C-0.677952 36.2199 0.0151649 43.5106 2.66423 50.1363C5.3133 56.762 9.79932 62.425 15.555 66.4093C21.3108 70.3936 28.0777 72.5202 35 72.5202C39.5964 72.5208 44.1478 71.5831 48.3945 69.7611C52.641 67.939 56.4996 65.2681 59.7497 61.9009C62.9999 58.5338 65.5779 54.5363 67.3367 50.1368C69.0954 45.7373 70.0005 41.0221 70 36.2602Z" fill="#B7ECB1"/>
<path d="M15.2795 28.2158H17.1807L11.5387 42.1014H11.1059L5.35156 28.2158H7.27651L11.2899 37.9259L15.2795 28.2158Z" fill="white"/>
<path d="M22.7496 36.5676V40.4502C22.7496 40.7608 22.8518 40.9161 23.0562 40.9161C23.4199 40.8459 23.7594 40.6779 24.0408 40.4291V41.5303C23.7406 41.7392 23.4224 41.9189 23.0902 42.0668C22.85 42.1626 22.5948 42.2116 22.3373 42.2115C21.5946 42.2115 21.1551 41.908 21.0188 41.3009C20.3538 41.8672 19.5219 42.181 18.6611 42.1904C18.3784 42.1988 18.0968 42.1475 17.8338 42.0394C17.5708 41.9314 17.3318 41.7689 17.1314 41.5621C16.9301 41.3569 16.772 41.1109 16.667 40.8394C16.562 40.5678 16.5125 40.2766 16.5216 39.9843C16.5207 39.4108 16.7343 38.8591 17.1178 38.4453C17.5921 37.9515 18.1775 37.5876 18.8213 37.3865L21.046 36.5923V36.1087C21.046 35.0145 20.5179 34.4639 19.4618 34.4639C18.5123 34.4639 17.5879 34.9721 16.6885 35.9887V33.9945C17.3699 33.1732 18.342 32.7614 19.6049 32.7591C20.4296 32.721 21.2392 32.9972 21.8808 33.5356C22.0882 33.7227 22.2624 33.9461 22.3952 34.1957C22.5415 34.4484 22.641 34.7273 22.6882 35.018C22.7404 35.5351 22.7609 36.0549 22.7496 36.5747V36.5676ZM21.046 40.249V37.5452L19.8809 38.0112C19.4214 38.1745 18.9951 38.4247 18.6237 38.7489C18.3933 38.9968 18.2645 39.3276 18.2645 39.6719C18.2645 40.0161 18.3933 40.3469 18.6237 40.5949C18.7434 40.7138 18.8851 40.8063 19.0403 40.867C19.1954 40.9276 19.3608 40.9551 19.5266 40.9479C19.815 40.9414 20.0994 40.8757 20.3631 40.7544C20.6269 40.6333 20.8648 40.4591 21.0631 40.2419" fill="white"/>
<path d="M27.3547 28.2158H25.6172V42.045H27.3547V28.2158Z" fill="white"/>
<path d="M40.723 28.2158H42.5083V42.0414H40.5902V31.283L36.4847 36.627H36.1304L31.9807 31.283V42.0414H30.0693V28.2158H31.8785L36.3144 33.895L40.723 28.2158Z" fill="white"/>
<path d="M50.6695 36.5683V40.4509C50.6695 40.7615 50.7717 40.9168 50.9761 40.9168C51.34 40.8472 51.6798 40.6792 51.9607 40.4297V41.531C51.6607 41.74 51.3424 41.9196 51.0102 42.0675C50.7712 42.1633 50.517 42.2124 50.2606 42.2122C49.5156 42.2122 49.0762 41.9086 48.9421 41.3015C48.2755 41.8673 47.4428 42.1811 46.581 42.191C46.2983 42.1993 46.0169 42.1479 45.7538 42.0398C45.4909 41.9318 45.2518 41.7695 45.0514 41.5628C44.85 41.3576 44.6919 41.1116 44.5869 40.8401C44.482 40.5685 44.4324 40.2773 44.4415 39.985C44.4405 39.4114 44.6543 38.8598 45.0377 38.446C45.512 37.9522 46.0974 37.5883 46.7412 37.3872L48.966 36.593V36.1094C48.966 35.0152 48.4379 34.4646 47.3817 34.4646C46.4323 34.4646 45.509 34.9729 44.6118 35.9894V33.9952C45.2932 33.1739 46.2642 32.7622 47.5248 32.7598C48.351 32.7179 49.1633 32.9917 49.8075 33.5292C50.2261 33.9185 50.5097 34.4393 50.615 35.0117C50.6672 35.5287 50.6877 36.0486 50.6763 36.5683H50.6695ZM48.9728 40.2426V37.5389L47.8076 38.0049C47.3481 38.1682 46.9219 38.4183 46.5504 38.7425C46.3177 38.9882 46.1858 39.3178 46.1826 39.662C46.1795 40.0063 46.3052 40.3383 46.5334 40.5886C46.6531 40.7074 46.7948 40.8 46.95 40.8606C47.1051 40.9213 47.2705 40.9488 47.4363 40.9416C47.7247 40.935 48.0091 40.8693 48.2728 40.7481C48.5366 40.627 48.7745 40.4528 48.9728 40.2356" fill="white"/>
<path d="M55.3601 32.9362V35.0256L55.4554 34.8668C56.2959 33.455 57.1373 32.749 57.9801 32.749C58.6342 32.749 59.3156 33.0914 60.0242 33.7762L59.1077 35.361C58.5047 34.768 57.9426 34.4715 57.4281 34.4715C57.1386 34.4783 56.8549 34.5571 56.6011 34.7015C56.3473 34.8459 56.1307 35.0515 55.9699 35.301C55.5547 35.866 55.3373 36.5606 55.3532 37.2706V42.0426H53.6055V32.9362H55.3601Z" fill="white"/>
<path d="M62.1437 29.1054C62.28 29.1031 62.4152 29.1292 62.5416 29.1819C62.668 29.2346 62.783 29.3129 62.8796 29.4124C62.9786 29.5086 63.057 29.6252 63.1099 29.7547C63.1626 29.8841 63.1887 30.0236 63.1862 30.1642C63.1874 30.3045 63.1609 30.4437 63.1081 30.5731C63.0554 30.7023 62.9776 30.819 62.8796 30.916C62.7838 31.0174 62.6693 31.0977 62.5428 31.1523C62.4164 31.2069 62.2807 31.2345 62.1437 31.2337C62.0111 31.2335 61.88 31.2048 61.7587 31.1496C61.6373 31.0943 61.5283 31.0136 61.4385 30.9125C61.3414 30.8156 61.2642 30.6994 61.2115 30.5708C61.1588 30.4422 61.1317 30.3039 61.1318 30.1642C61.1325 30.0262 61.16 29.8898 61.2127 29.7631C61.2654 29.6363 61.3422 29.5218 61.4385 29.4265C61.5283 29.3254 61.6373 29.2448 61.7587 29.1895C61.88 29.1342 62.0111 29.1055 62.1437 29.1054ZM61.2851 32.935H63.033V42.0415H61.2953L61.2851 32.935Z" fill="white"/>
</svg>
