<svg width="28" height="28" viewBox="0 0 28 28" fill="none" xmlns="http://www.w3.org/2000/svg">
<path d="M27.4555 22.2645L24.3514 20.1949L21.592 18.3557C21.0595 18.0013 20.3438 18.1175 19.9506 18.6221L18.2431 20.8172C17.8763 21.2935 17.2166 21.4304 16.6906 21.1392C15.532 20.4947 14.1619 19.8879 11.1389 16.8611C8.11594 13.8342 7.50526 12.468 6.86077 11.3094C6.56956 10.7834 6.70644 10.1236 7.18277 9.75691L9.37784 8.04942C9.88244 7.65633 9.99865 6.94064 9.64433 6.40805L7.86154 3.73358L5.73548 0.544464C5.37362 0.00164174 4.64923 -0.161325 4.08979 0.174179L1.63785 1.64515C0.975205 2.03556 0.488108 2.66599 0.277455 3.40574C-0.393061 5.8504 -0.528247 11.2432 8.11447 19.886C16.7572 28.5287 22.1495 28.393 24.5942 27.7225C25.3339 27.5119 25.9644 27.0248 26.3548 26.3621L27.8258 23.9102C28.1613 23.3507 27.9983 22.6264 27.4555 22.2645Z" fill="#55A630"/>
<path d="M15.9295 4.34489C20.4599 4.34992 24.1313 8.02127 24.1363 12.5517C24.1363 12.8183 24.3524 13.0345 24.6191 13.0345C24.8857 13.0345 25.1019 12.8183 25.1019 12.5517C25.0963 7.48829 20.993 3.38497 15.9296 3.37939C15.663 3.37939 15.4468 3.59552 15.4468 3.86217C15.4467 4.12871 15.6628 4.34489 15.9295 4.34489Z" fill="#55A630"/>
<path d="M15.9305 7.24094C18.8619 7.24439 21.2373 9.61988 21.2408 12.5512C21.2408 12.8178 21.4569 13.034 21.7236 13.034C21.9902 13.034 22.2063 12.8179 22.2063 12.5512C22.2024 9.08684 19.3949 6.27938 15.9305 6.27539C15.6639 6.27539 15.4478 6.49151 15.4478 6.75817C15.4478 7.02482 15.6639 7.24094 15.9305 7.24094Z" fill="#55A630"/>
<path d="M15.9295 10.1381C17.2619 10.1397 18.3417 11.2194 18.3433 12.5519C18.3433 12.8185 18.5594 13.0346 18.826 13.0346C19.0926 13.0346 19.3088 12.8185 19.3088 12.5519C19.3067 10.6864 17.795 9.17474 15.9296 9.17261C15.663 9.17261 15.4468 9.38873 15.4468 9.65538C15.4467 9.92198 15.6628 10.1381 15.9295 10.1381Z" fill="#55A630"/>
</svg>
